<svg xmlns="http://www.w3.org/2000/svg" xmlns:xlink="http://www.w3.org/1999/xlink" width="133.125" height="176.815" viewBox="0 0 133.125 176.815"><defs><linearGradient id="a" x1="0.684" x2="0.5" y2="1" gradientUnits="objectBoundingBox"><stop offset="0" stop-color="#103996"/><stop offset="1" stop-color="#2065d1"/></linearGradient><linearGradient id="b" x1="0.5" x2="0.5" y2="1" gradientUnits="objectBoundingBox"><stop offset="0" stop-color="#76b0f1"/><stop offset="1" stop-color="#103996"/></linearGradient></defs><g transform="translate(35.397 501.565)"><path d="M0,0H90.416C114,0,133.125,18.834,133.125,42.067v9.651H42.709C19.125,51.719,0,32.889,0,9.659Z" transform="translate(-35.397 -501.565)" fill="url(#a)"/><path d="M0,79.27H90.416c23.588,0,42.709,18.834,42.709,42.067V131H42.709C19.122,131,0,112.162,0,88.929Z" transform="translate(-35.397 -518.289)" fill="url(#b)"/><path d="M57.456,158.54H0a51.725,51.725,0,0,0,51.719,51.719H94.663A54.669,54.669,0,0,1,57.456,158.54Z" transform="translate(-34.776 -535.009)" fill="url(#b)"/></g></svg>