<svg xmlns="http://www.w3.org/2000/svg" xmlns:xlink="http://www.w3.org/1999/xlink" width="180" height="191.667" viewBox="0 0 180 191.667">
  <defs>
    <linearGradient id="linear-gradient" x1="0.5" y1="0.07" x2="0.5" y2="0.443" gradientUnits="objectBoundingBox">
      <stop offset="0" stop-color="#ff9545"/>
      <stop offset="1" stop-color="#ff5736"/>
    </linearGradient>
    <clipPath id="clip-path">
      <path id="Path_7" data-name="Path 7" d="M83.276,160.9c-16.633-22.323.062-21.2-4.1-39.454-1.142-8.35-13.48-15.306-10.942-22.282,1.648-3.194,2.551-12.639-2.551-12.31-5.581,1.785-8.056-1.648-10.7-5.239-9.691-1.983-12.31,6.675-24.087,3.1C16.63,90.221,10.68,77.555,3.232,67.912c-9.116-8.022,4.22-16.927,0-26.378A37.9,37.9,0,0,1,20.952,21.7c2.489-.957,4.507-2.558,4.787-5.861C26.3,9.684,34.111,9.554,36.785,4.828c3.057-2.92,8.74,1.833,12.994-1.368C57.507-1.252,66.521,2.147,74.536,0c6.49,4.733-6.059,7.386,3.9,11.387,1.252,1.327,2.66.335,4,.267,3.337,1.47,12.68,9.964,14.362,3.221-.2-8.809,21.714,3.9,30.283.718,10.464-.431,1.847,8.05,5.471,12.721,2.77,3.481,3.42,8.309,7.345,11.079,2.53,1.71.164,5.4,1.06,7.824,3.474-2.5,7.277,12.454,13.5,13.849,5.526.862,1.881,10.313,9.349,9.342,4.288.629,17.713-7.393,16.017,0-2.387,19.341-23.13,25.66-30.3,42.026-3.084,10.765,9.52,26.323-5.04,33.429-17.46,7.92-.684,16.728-13.473,21.331a2.556,2.556,0,0,0-2.271,2.325c-.834,9.2-8.672,13.268-14.2,18.965-3.57,2.736-8.809-.315-12.768,1.73-7.338,2.571-7.66,2.175-9.123-4.842C89.917,176.652,82.394,170.47,83.276,160.9Zm76.235-12.488c1.511,6.2-7.6,14.41-.561,19.368,9.24,2.613,19.149-28.779,15.86-35.939C171.336,140.994,159.34,141.753,159.511,148.407Z" transform="translate(0.03)" fill="none"/>
    </clipPath>
  </defs>
  <g id="logo" transform="translate(0.03)">
    <path id="Path_1" data-name="Path 1" d="M83.276,160.9c-16.633-22.323.062-21.2-4.1-39.454-1.142-8.35-13.48-15.306-10.942-22.282,1.648-3.194,2.551-12.639-2.551-12.31-5.581,1.785-8.056-1.648-10.7-5.239-9.691-1.983-12.31,6.675-24.087,3.1C16.63,90.221,10.68,77.555,3.232,67.912c-9.116-8.022,4.22-16.927,0-26.378A37.9,37.9,0,0,1,20.952,21.7c2.489-.957,4.507-2.558,4.787-5.861C26.3,9.684,34.111,9.554,36.785,4.828c3.057-2.92,8.74,1.833,12.994-1.368C57.507-1.252,66.521,2.147,74.536,0c6.49,4.733-6.059,7.386,3.9,11.387,1.252,1.327,2.66.335,4,.267,3.337,1.47,12.68,9.964,14.362,3.221-.2-8.809,21.714,3.9,30.283.718,10.464-.431,1.847,8.05,5.471,12.721,2.77,3.481,3.42,8.309,7.345,11.079,2.53,1.71.164,5.4,1.06,7.824,3.474-2.5,7.277,12.454,13.5,13.849,5.526.862,1.881,10.313,9.349,9.342,4.288.629,17.713-7.393,16.017,0-2.387,19.341-23.13,25.66-30.3,42.026-3.084,10.765,9.52,26.323-5.04,33.429-17.46,7.92-.684,16.728-13.473,21.331a2.556,2.556,0,0,0-2.271,2.325c-.834,9.2-8.672,13.268-14.2,18.965-3.57,2.736-8.809-.315-12.768,1.73-7.338,2.571-7.66,2.175-9.123-4.842C89.917,176.652,82.394,170.47,83.276,160.9Zm76.235-12.488c1.511,6.2-7.6,14.41-.561,19.368,9.24,2.613,19.149-28.779,15.86-35.939C171.336,140.994,159.34,141.753,159.511,148.407Z" transform="translate(0)" fill="url(#linear-gradient)"/>
    <g id="Group_1" data-name="Group 1" transform="translate(-0.03)" clip-path="url(#clip-path)">
      <path id="Path_3" data-name="Path 3" d="M181.658,128.8a66.479,66.479,0,0,0-.171,10.436c.1,1.573.376,3.317-1.443,3.939a23.8,23.8,0,0,1-4.876.684q-22.336,2.257-44.775,3.153t-44.878.41q-11.223-.246-22.432-.834-5.6-.294-11.2-.684a64.528,64.528,0,0,1-9.862-1.135,18.24,18.24,0,0,1-8.542-4.2,40.912,40.912,0,0,1-5.984-7.708l-12.42-18.746-1.812-2.736a.684.684,0,0,0,.253-.561,1.853,1.853,0,0,0-.212-.869q8.032.523,16.085.978c3.057.178,6.107.6,9.164.684,2.12.055,4.534-.157,6.155-1.723a8.8,8.8,0,0,0,1.7-2.879c.349-.78.759-1.874,1.587-2.277.834,3.775,6.251,3.946,9.363,4.049,6.394.205,12.775.547,19.149.78,2.948.109,6.046.5,8.973.1a10.7,10.7,0,0,0,5.957-3.016,58.61,58.61,0,0,0,4.575-5.334c.684-.807,1.867-2.736,3.091-2.353a4.3,4.3,0,0,1,1.7,1.429c.458.492.91.992,1.368,1.47,1.737,1.785,3.844,3.474,6.442,3.543a5.375,5.375,0,0,0,4.555-2.052,4.733,4.733,0,0,0,2.161,1.518,4.787,4.787,0,0,0,1.758.26,5.828,5.828,0,0,0,.834-.116,3.255,3.255,0,0,1,1.457.219q2.736.684,5.437,1.327c1.881.41,3.8.684,5.656,1.156a78.819,78.819,0,0,0,11.018,1.771,85.529,85.529,0,0,0,11.141.684c1.888-.048,4.343-.52,5.471-2.106a4.91,4.91,0,0,0,2.8,1.915c2.428.718,5.15.533,7.646.574,3.132.055,6.251.062,9.383-.075,2.818-.123,5.629-.41,8.439-.588A59.249,59.249,0,0,0,181.658,128.8Z" transform="translate(-4.171 -31.264)" opacity="0.1"/>
      <path id="Path_4" data-name="Path 4" d="M186.268,109.447a147.522,147.522,0,0,1-16.414,1.8c-5.471.226-10.942.4-16.366.328s-10.908-.356-16.345-.773c-2.695-.205-5.389-.383-8.084-.438a63.308,63.308,0,0,0-8.125.451,45.6,45.6,0,0,1-8.022.3,39.843,39.843,0,0,0-7.872-.089c-2.647.349-5.246,1.026-7.9,1.368a40.5,40.5,0,0,1-7.885,0c-2.64-.205-5.287-.294-7.933-.431-.937-.048-1.874-.082-2.811-.116a.472.472,0,0,1-.171-.157,1.039,1.039,0,0,1-.041-.438l-.041-2.106c0-1.409-.048-2.818-.1-4.22,0-.725-.041-1.45-.055-2.175a6.706,6.706,0,0,1,.828.123.226.226,0,0,0,.219-.164c.239-.9,1.429-.609,2.052-.458a5.253,5.253,0,0,0,2.544,0c.212-.055.424-.1.629-.178l.274-.116a1.477,1.477,0,0,1,.328-.164c.191-.041.376.109.568.13a.875.875,0,0,0,.506-.109c.15-.075.28-.171.417-.253a.78.78,0,0,1,.239-.116,1.668,1.668,0,0,1,.369,0,3.888,3.888,0,0,0,.629,0,1.881,1.881,0,0,0,.609-.171c.465-.191.869-.486,1.327-.684h0a2.812,2.812,0,0,0,.287-.144c.1-.055.164-.13.253-.191a1.71,1.71,0,0,1,.431-.185l.417-.144h0a.875.875,0,0,0,.342-.253A1.635,1.635,0,0,0,93.359,98.4a2.223,2.223,0,0,0-.486-1.607,1.293,1.293,0,0,0-1.04-.629A1.676,1.676,0,0,0,90.713,94.8a1.279,1.279,0,0,0-.745-1.074,1.258,1.258,0,0,0-1.053,0,1.368,1.368,0,0,0-2.517-.588,1.846,1.846,0,0,0-.732-.239,1.935,1.935,0,0,0-.527.034.828.828,0,0,0-.472.226c-.1.15-.157.328-.253.479a3.1,3.1,0,0,1-.328.458,3.981,3.981,0,0,1-.752.684,1.5,1.5,0,0,0-1.511,0L81.5,94.5a.219.219,0,0,0-.294,0,1.224,1.224,0,0,1-.786.26,1.5,1.5,0,0,0-.766-1.2.944.944,0,0,0-.793.048A.684.684,0,0,0,78.5,93.2a.622.622,0,0,0-.506,0,.8.8,0,0,0-1.074-.062,1.812,1.812,0,0,0-2.435.205,1.115,1.115,0,0,0-1.067-.26,2.107,2.107,0,0,0-.807.5,4.54,4.54,0,0,1-.739.629,11.168,11.168,0,0,1-2.052.759c-.376.123-.752.26-1.142.362a1.785,1.785,0,0,1-1.067-.075,2.052,2.052,0,0,0-1.04-.13.916.916,0,0,0-.574.349l-.9-.287A2.469,2.469,0,0,0,64.143,95a.93.93,0,0,0-.739.5l-.41-.39c-.116-.109-.185-.164-.342-.13a1.1,1.1,0,0,0-.356.123,1.368,1.368,0,0,0-.684.93.964.964,0,0,0-.684.383,9.48,9.48,0,0,0-.739.985,3.255,3.255,0,0,0-.684,2.257.192.192,0,0,0,.137.144,8.3,8.3,0,0,0,.978.205,1.441,1.441,0,0,0,.91-.554.883.883,0,0,1,.116-.109.609.609,0,0,0,.554.062c.349-.137.431-.568.786-.684h0l.2.068c.191.062.4.089.595.144a5.545,5.545,0,0,0,.581.144h.062a1.04,1.04,0,0,0,.191.814.923.923,0,0,0,1.313.1.342.342,0,0,0,.048-.055l.219.308a2.476,2.476,0,0,0,.855.807,2.736,2.736,0,0,0,.581.246,1.62,1.62,0,0,0,.684.082,8.288,8.288,0,0,0,1.3-.28,3.038,3.038,0,0,0,.335-.164.793.793,0,0,1,.308,0,1.64,1.64,0,0,1,.164,0h.055a.684.684,0,0,0,.308.082,3.871,3.871,0,0,1,.629,0,2.052,2.052,0,0,1,1.04.527.164.164,0,0,0,.274-.157c-.048-.294-.13-.739.15-.951a.41.41,0,0,1,.109-.055l.3.082a.26.26,0,0,1,.062.062,3.379,3.379,0,0,1,.267.574,1.751,1.751,0,0,0,.4.54.26.26,0,0,0,.239.062,1.238,1.238,0,0,0,.506-.451c.164-.191.342-.335.568-.123s.438.9.828.978v4.35c0,.766,0,1.532-.041,2.3s0,1.539,0,2.3a1.561,1.561,0,0,1-.041.445c-.041.1-.349.15-.472.191l-.253.075c-.684,0-1.368,0-2.011.041a45.6,45.6,0,0,0-7.7.91c-2.6.554-5.15,1.368-7.694,2.12A81.1,81.1,0,0,1,42.9,118.029a3.248,3.248,0,0,0-1.84.164,75.948,75.948,0,0,1-14.752-.267c-1.368-.164-2.736-.349-4.1-.574-.137,0-.2.185-.062.212a74.2,74.2,0,0,0,18.342,1.19.786.786,0,0,0,0,.178,45.63,45.63,0,0,0,1.081,8.822,29.8,29.8,0,0,0,2.592,7.687,10.183,10.183,0,0,0,5.143,4.664,19.286,19.286,0,0,0,6.914,1.176c6.066.13,12.18-.226,18.24-.431q9.4-.308,18.814-.752c12.536-.581,25.065-1.313,37.615-2.127s25.051-1.723,37.567-2.654l9.472-.684,4.733-.356c1.074-.082,2.312-.116,2.7-1.327a8.3,8.3,0,0,0,.212-1.881c.055-.814.109-1.621.171-2.435l.328-4.7q.328-4.616.643-9.233l.328-4.7A.656.656,0,0,0,186.268,109.447Zm-102.6-7.714a.356.356,0,0,1-.144.294h-.3a4.008,4.008,0,0,0-.4,0,4.261,4.261,0,0,1-.78-.041,1.785,1.785,0,0,1-.383-.055,1.9,1.9,0,0,1-.369-.191c-.13-.089-.26-.171-.4-.246l.321-.226a1.012,1.012,0,0,1,.807-.109c.274.055.54.13.814.185a2.448,2.448,0,0,0,.807.041h.075a.827.827,0,0,0-.048.349Zm5.854-2.264h.116v.246a.609.609,0,0,1-.219.472h0l-.191.089c-.13.048-.274.082-.39.137h0a.472.472,0,0,1,.1-.315c.137-.164.328-.274.472-.424a.9.9,0,0,0,.109-.205Zm-2.654-.451a.786.786,0,0,0,0-.13,1.17,1.17,0,0,0,.26-.089.8.8,0,0,0,.349.308,1.265,1.265,0,0,0,.445.1.075.075,0,0,1,0,.062c-.116.13-.445.062-.588.048a5.156,5.156,0,0,0-.574-.041A.684.684,0,0,0,86.869,99Zm-.294.533a1.108,1.108,0,0,1,.4,0l.465.041a.916.916,0,0,0,.629-.1.356.356,0,0,0,.137-.233V99.2h.588a.991.991,0,0,0,.39.233,1.142,1.142,0,0,1-.315.287.944.944,0,0,0-.369.479.534.534,0,0,0,0,.185.089.089,0,0,0,0,.041h-.075a.417.417,0,0,0-.205.137,1.081,1.081,0,0,0-.171.315,2.434,2.434,0,0,1-.4.212c-.164,0-.335-.041-.506-.055a1.723,1.723,0,0,0-1.067.4.821.821,0,0,1-.451.185c-.226,0-.4-.164-.629-.157a1.368,1.368,0,0,0-.561.205,5.209,5.209,0,0,1-.684.3h0c.144-.171.26-.4.369-.506.335-.321.834-.3,1.245-.465a1.539,1.539,0,0,0,.944-.841C86.349,99.968,86.343,99.626,86.575,99.55Zm-1.607.513h0a.8.8,0,0,0,.506-.267.622.622,0,0,0,.561,0l.082-.055a1.9,1.9,0,0,1-.178.5,1.224,1.224,0,0,1-.472.4,6.217,6.217,0,0,1-1.224.328.875.875,0,0,0-.342.185,1.984,1.984,0,0,1-.4.062,1.846,1.846,0,0,1-.793-.109,2.2,2.2,0,0,0-1.5-.171,4.385,4.385,0,0,0-.684.315c-.055,0-.116.055-.171.082a2.325,2.325,0,0,0-1.108.062,2.4,2.4,0,0,0-.308.123c-.075.041-.157.116-.205.048a1.05,1.05,0,0,1-.082-.233.533.533,0,0,0-.178-.246.424.424,0,0,0-.239-.075l.034-.075a.964.964,0,0,1,.4-.451c.492-.267,1.087,0,1.593.041a.684.684,0,0,0,.684-.356.2.2,0,0,0,.109-.041.5.5,0,0,0,.109-.157h0a4.015,4.015,0,0,1,.745.205,5.211,5.211,0,0,0,1.409.486,2.523,2.523,0,0,0,1.368-.376,1.026,1.026,0,0,0,.253-.226Zm-5.779-.041a3.878,3.878,0,0,1,1.217-.164,3.169,3.169,0,0,1,.445,0,.752.752,0,0,1-.164.274c-.191.178-.465.082-.684,0A3,3,0,0,0,79.189,100.022Zm5.232-.164c.116,0,.164.082.26.137h.041a2.264,2.264,0,0,1-.458.2,3.248,3.248,0,0,1-.588.171c.041-.137,0-.287.13-.4l.185-.137A.684.684,0,0,0,84.421,99.858Zm-2.1-1.115a.5.5,0,0,0,.041-.328.383.383,0,0,0,0-.082,1.115,1.115,0,0,0,.937-.253,1.293,1.293,0,0,0,.533.465,1.176,1.176,0,0,0-.157.4.5.5,0,0,0,.109.369.465.465,0,0,0,.041.356.54.54,0,0,0,.1.116.876.876,0,0,0-.171.1.417.417,0,0,0-.144.164,1.634,1.634,0,0,1-.109.219.274.274,0,0,1-.219.068,1.328,1.328,0,0,1-.308-.055l-.15-.041c-.205-.082-.4-.178-.6-.267a4.6,4.6,0,0,0-.9-.28.52.52,0,0,0,0-.075c.062-.191.123-.445.315-.547h.075c.39-.1.821,0,1.156-.26.1-.089-.041-.226-.137-.144a.752.752,0,0,1-.445.164.321.321,0,0,0,.041-.089Zm-2.736.684a.766.766,0,0,0,.157-.684v-.089a1.415,1.415,0,0,0,.1-.233.725.725,0,0,0,0-.13,1.936,1.936,0,0,0,.362.1,4.035,4.035,0,0,0,1.976-.1h0a.383.383,0,0,1,.041.253.137.137,0,0,1-.041.062h0a1.162,1.162,0,0,1-.164.062,1.176,1.176,0,0,0-.684.233.766.766,0,0,0-.164.253,1.888,1.888,0,0,0-.205.445h-.089a4.685,4.685,0,0,0-1.368.048l-.239.055a3.346,3.346,0,0,0,.287-.287Zm-1.429-.205a.684.684,0,0,0,.205.068A.669.669,0,0,0,79.216,99h.048a1.059,1.059,0,0,0,0,.15c0,.233-.212.342-.369.486a5.728,5.728,0,0,0-.4.41l-.13.089c-.362.3-.486.807-.841,1.108a.554.554,0,0,1-.2.109c-.123-.082-.246-.15-.376-.226l-.191-.13a1.21,1.21,0,0,1-.2-.6,1.279,1.279,0,0,1,.1-.52,1.819,1.819,0,0,1,.834-.328,1.5,1.5,0,0,0,.616-.342Zm-.54-.205.239-.137h.1a.267.267,0,0,0,0,.123.308.308,0,0,0,.1.13,1.525,1.525,0,0,1-.643.239,4.7,4.7,0,0,0-.554.15,1.833,1.833,0,0,1,.205-.191A3.891,3.891,0,0,1,77.589,99Zm-2.25-1.081a1.518,1.518,0,0,0,.6.109,1.751,1.751,0,0,0,.9-.315.6.6,0,0,0,.438.253.8.8,0,0,0,.055.533l.062.1a2.988,2.988,0,0,1-.451.287,2.052,2.052,0,0,0-.739.561,3.168,3.168,0,0,0-.068-.445.491.491,0,0,0-.048-.26.581.581,0,0,0-.308-.4c-.157-.082-.506-.144-.492-.376a.315.315,0,0,0,.048-.048Zm-.376.26a.369.369,0,0,0,.191-.13h0c0,.15.164.246.328.328h-.253a.588.588,0,0,1-.308-.1Zm-.684.527a.532.532,0,0,0,.068-.1h.068a.335.335,0,0,0,.116,0,.554.554,0,0,0,.328-.233h0a.561.561,0,0,0,.226.1,2.516,2.516,0,0,1,.4,0,.657.657,0,0,1,.321.684c-.014.233,0,.527,0,.793a1.908,1.908,0,0,0-.4-.342,2.735,2.735,0,0,0-.486-.246l-.253-.1c-.075,0-.116,0-.157-.123s0-.1-.041-.144a.718.718,0,0,0-.239-.328.411.411,0,0,0,.055.041Zm-.937-.205a.527.527,0,0,0,.369.369.554.554,0,0,0,.417-.048h0a.472.472,0,0,1,.13.13c.1.144.068.335.171.472a.781.781,0,0,0,.075.075,5.82,5.82,0,0,0-1.614.055l-.445.062v-.123a4.179,4.179,0,0,0-.048-.684,1.2,1.2,0,0,1,.157-.438,1.06,1.06,0,0,1,.3-.328.458.458,0,0,0,.116.274.486.486,0,0,0,.376.185Zm-1.744-.684a.684.684,0,0,0,.075-.191,1,1,0,0,0,.9-.479l.082.055a.6.6,0,0,0,0,.157.616.616,0,0,0,.226.376h0l-.178.13a1.846,1.846,0,0,0-.5.451.746.746,0,0,0-.089-.116,1.792,1.792,0,0,0-.547-.308h0Zm-.684.622a.417.417,0,0,0,.267-.164,2.613,2.613,0,0,1,.233-.246,1.183,1.183,0,0,1,.4.438,2.052,2.052,0,0,1,.075.684v.445h-.445c-.219-.137-.527-.253-.588-.54a5.021,5.021,0,0,0,.062-.561Zm-.246,0a.233.233,0,0,0,.041-.041h0l.041.041h0a.615.615,0,0,1,0,.315.244.244,0,0,1-.048.171,1.06,1.06,0,0,0-.055-.157,1.3,1.3,0,0,0-.137-.253.294.294,0,0,0,.171-.082Zm-2.736,0c.048-.089.041-.1.15-.109a.86.86,0,0,0,.191,0,.615.615,0,0,0,.178-.116c.082.253-.109.52-.171.793h0a1.012,1.012,0,0,0-.226-.123h-.068a.424.424,0,0,1-.164-.226.616.616,0,0,0,.1-.239Zm-1.279-.068h0a1.416,1.416,0,0,0,.164.116.684.684,0,0,0,.424.048h0a.308.308,0,0,0,.356.13h0a.211.211,0,0,0,0,.055h0a3.96,3.96,0,0,1-.561-.082,1.012,1.012,0,0,1-.554-.253Zm-.937,1.368h0a.055.055,0,0,0-.048,0c-.123,0-.212.1-.349.062a.315.315,0,0,1-.212-.342h0a.615.615,0,0,0,.185-.048.451.451,0,0,0,.438.089l.082.171a.335.335,0,0,1-.1-.007Zm.157-.185a.353.353,0,0,0-.055-.13h.034c.3,0,.486-.568.568-.855a.137.137,0,0,0,.055,0,.964.964,0,0,0,.362.3,5.545,5.545,0,0,0,.882.219.643.643,0,0,1,.39.3h0l-.28.048a.513.513,0,0,0-.362.212v.048h0c-.075,0-.116-.1-.157-.157a1.006,1.006,0,0,0-.219-.233.752.752,0,0,0-1.026.062q-.1.06-.2.13Zm2.51,1.457a2.553,2.553,0,0,0-.383-.082,3.946,3.946,0,0,1-1.368-.54,1.676,1.676,0,0,1-.568-.479.145.145,0,0,0,0-.041,2.475,2.475,0,0,1,.28-.356c.239-.205.417.109.54.28a.821.821,0,0,0,.321.294h0a.458.458,0,0,0,.15.267.5.5,0,0,0,.342.13.362.362,0,0,0,.533.13H68.3c.068.116.116.274.178.39Zm.834-.116a.636.636,0,0,1-.684-.1c-.055-.055-.1-.116-.157-.178a.212.212,0,0,0,.082,0,.834.834,0,0,0,.26-.315h0a.458.458,0,0,0,.376.185h.144a.683.683,0,0,0,.15.062,2.305,2.305,0,0,1,.486.062.26.26,0,0,1,.1.062,4.788,4.788,0,0,0-.793.164Zm3.139.226a2.332,2.332,0,0,0-.814-.349,2.591,2.591,0,0,1-.684-.123,1.955,1.955,0,0,1-.308-.3.137.137,0,0,0,0-.055.274.274,0,0,0-.123-.068.642.642,0,0,0-.773-.13h0c-.185,0-.383-.048-.445-.246a1.039,1.039,0,0,0-.267-.533c-.082-.068-.191-.109-.239-.205a.506.506,0,0,1,0-.246,1.293,1.293,0,0,0-.075-.814.575.575,0,0,0,.1-.349.684.684,0,0,0-.062-.205l.362-.062h0a.321.321,0,0,0,.191.205.527.527,0,0,0,.315.622.684.684,0,0,0,.513,0,1.252,1.252,0,0,1,.369.342c.192.267.2.622.4.882a1.368,1.368,0,0,0,1.224.39.485.485,0,0,0,.062.191c.13.2.342.212.554.239a1.087,1.087,0,0,0-.3.759Zm3.638.513-.075-.048a.164.164,0,0,1,0-.082s0-.041-.048,0a.137.137,0,0,0,0,.048.875.875,0,0,1-.164-.219.971.971,0,0,0-.479-.445c-.4-.123-.684.205-.978.356-.308-.349-.4-.91-.862-1.115a.684.684,0,0,0-.54,0h0l-.185-.075-.116-.041h.048a.055.055,0,0,0,0-.1v-.041a4.1,4.1,0,0,1,2.093,0,1.717,1.717,0,0,1,.684.533,7.955,7.955,0,0,0,.581.78l.144.109.062.062.137.075.1.082.048.041a.424.424,0,0,1-.075.116h0a.424.424,0,0,1-.342-.1Z" transform="translate(-6.955 -29.238)" opacity="0.25"/>
      <path id="Path_5" data-name="Path 5" d="M207.917,219.582q-.239-20.4-1.84-40.767c-.253-3.173-.212-6.613-1.074-9.691a10.888,10.888,0,0,0-4.4-5.9c-1.915-1.368-4.1-2.318-6.155-3.5a10.471,10.471,0,0,1-2.736-2.052c-1.081-1.258-.431-2.831-.055-4.254l1.252-4.726c.417-1.58.65-3.208.944-4.787a1.3,1.3,0,0,0-1.224-1.6c-2.9-.068-5.717-.855-8.638-.848a51.836,51.836,0,0,0-8.1.609c-1.279.212-2.585.219-3.878.369a22.856,22.856,0,0,0-4.233.9,51.558,51.558,0,0,1-7.755,2.052,17.782,17.782,0,0,1-7.844-.588,29.142,29.142,0,0,1-4.069-1.47,29.076,29.076,0,0,0-3.775-1.532c-5.122-1.511-10.744-1.122-15.908-.068-2.681.547-5.369,1.04-8.029,1.682s-5.2,1.265-7.838,1.71a21.2,21.2,0,0,1-8.3.1,23.747,23.747,0,0,0-3.652-.855c-1.32-.1-2.633-.274-3.96-.328s-2.442-.3-3.693-.253c-1.423.055-2.825.3-4.227.492a17.446,17.446,0,0,1-3.96.185,28.045,28.045,0,0,1-4.1-.93c-5.417-1.368-11.059-.9-16.468.191-6.217,1.252-12.31,3.7-18.65,4.138-1.511.109-3.03.178-4.548.219a34.721,34.721,0,0,0-4.787.246c-1.546.26-3.166.26-4.685.6L30,149.236a1.45,1.45,0,0,0-1.074-.335l-2.052.13a1.662,1.662,0,0,0-1.635,1.641A16.92,16.92,0,0,0,33.515,164.1c2.524,1.5,5.321,2.469,7.776,4.1a22.1,22.1,0,0,1,5.341,5.122c3.146,4.144,5.2,9.021,7.16,13.8q3.878,9.479,7.742,18.951L76.9,243.519q3.871,9.472,7.749,18.944c2.12,5.191,4.261,10.621,9.294,13.678,4.384,2.647,9.759,2.927,14.724,2.359,5.711-.684,11.264-2.264,16.817-3.679,12.468-3.194,24.915-6.49,37.177-10.409,6.155-1.97,12.31-4.1,18.363-6.442q4.555-1.764,9.041-3.693a61.382,61.382,0,0,0,7.749-3.768,20.86,20.86,0,0,0,6.217-5.56,19.737,19.737,0,0,0,3.139-7.591C208.362,231.557,207.986,225.457,207.917,219.582Z" transform="translate(-7.958 -44.503)"/>
      <path id="Path_6" data-name="Path 6" d="M194.17,128.016c-1.163,1.7-3.625,1.573-5.41,1.3-1.163-.185-2.325-.451-3.508-.52a21.585,21.585,0,0,0-3.5.376c-2.407.246-4.575-1.128-6.983-.992s-4.787,1.026-7.16,1.546a77.141,77.141,0,0,1-15.046,1.491c-2.6.048-5.2.089-7.8,0l-3.96-.164a10.258,10.258,0,0,1-3.5-.506c-1.081-.438-1.99-1.224-3.064-1.689a15.667,15.667,0,0,0-3.023-.951,17.043,17.043,0,0,0-6.367-.1c-2.332.424-4.555,1.368-6.914,1.628s-4.678-.445-7.044-.65c-2.489-.212-4.917.554-7.372.807a25.1,25.1,0,0,0-3.536.78,29.63,29.63,0,0,1-3.8.561,69.866,69.866,0,0,1-14.977-.342,7.869,7.869,0,0,0-5.786,1.2c-1.443,1.087-2.558,2.6-4.1,3.556a5.526,5.526,0,0,1-2.8.78.581.581,0,0,0-.157-.684,1.915,1.915,0,0,0-2.414-.123,2.12,2.12,0,0,0-.547.527l-.964-.157a8.508,8.508,0,0,0-5.15.533,4.192,4.192,0,0,0-1.676,1.546c-.171.274.239.479.424.239,1.231-1.655,3.42-1.689,5.287-1.484.554.062,1.115.157,1.669.26a3.974,3.974,0,0,0-.068,1.306,35,35,0,0,0,1.156,5.95c1.108,3.905,3.255,7.523,7.27,8.945a22.322,22.322,0,0,0,7.126.821c2.777,0,5.56-.034,8.337-.15,5.594-.239,11.182-.684,16.769-1.115,11.127-.848,22.261-1.7,33.381-2.64s22.152-1.956,33.2-3.139c5.471-.588,11-1.108,16.468-1.915a5.259,5.259,0,0,0,2.893-1.128,5.047,5.047,0,0,0,1.279-2.866q.889-4.144,1.771-8.3c.287-1.368.622-2.674.848-4.021a.684.684,0,0,0-1.245-.513Z" transform="translate(-18.174 -40.319)" opacity="0.5"/>
    </g>
    <path id="Path_8" data-name="Path 8" d="M159.1,146.27a.49.49,0,0,0-.55.23c-.08.12-.18.23-.26.36l-.16.1h0a2.613,2.613,0,0,1-.06-.27.579.579,0,0,0,0-.1v-.13h0a.52.52,0,0,0-.38-.52.54.54,0,0,0-.66.36.67.67,0,0,0-.58-.14.62.62,0,0,0-.44.61h0a1,1,0,0,0,0,.24h0v-.59a.57.57,0,0,0-.42-.54.55.55,0,0,0-.63.25,2.36,2.36,0,0,0-.2,1.18,13.72,13.72,0,0,1-.68-1.32.42.42,0,0,0-.77.1c-.06.34-.11.69-.16,1a.93.93,0,0,0-1-.24,6.44,6.44,0,0,0-.18-.85.52.52,0,0,0-.71-.32,13.42,13.42,0,0,0-1-3.8A.64.64,0,0,0,149,142c-.14.83-.31,1.66-.46,2.49a16.92,16.92,0,0,0-2.28-4.12.56.56,0,0,0-1,.43c.19.82.27,1.66.47,2.47a22.428,22.428,0,0,0,.69,2.25.44.44,0,0,0-.16.4c.05.36.13.71.19,1.06a.37.37,0,0,0-.22-.12.42.42,0,0,0-.38.18.71.71,0,0,0-.83-.45,7.329,7.329,0,0,0-1.88.64,4.831,4.831,0,0,0-.84.65,2,2,0,0,0-.63.88,5.08,5.08,0,0,0-.4.85,1.84,1.84,0,0,0-.06.5,4.5,4.5,0,0,1-.08.51.26.26,0,0,0,.47.2,2.19,2.19,0,0,1,.46-.5,2,2,0,0,0,.37-.3c.07-.07.14-.15.22-.22a.809.809,0,0,1,.13-.11,3.1,3.1,0,0,0,.69-.53l.33-.25a1.22,1.22,0,0,0,.27.5,2.351,2.351,0,0,0,.29.26,7.119,7.119,0,0,0,.81.64,5.129,5.129,0,0,0,.72.41A2.18,2.18,0,0,0,147,151h.18a.75.75,0,0,0,.61-.29c.09.15.17.3.26.44l.18.27h0c.08,1.23,2,1.24,1.93,0a6.7,6.7,0,0,0-.06-1.09.56.56,0,0,0,.87-.32c.12-.45.23-.92.34-1.38a.58.58,0,0,0,.25.18,2.59,2.59,0,0,0,1.07,1.69v.36a.235.235,0,0,0,.46.06l.06-.26h.24a1.73,1.73,0,0,0,.78-.15c.24-.12.26-.15.43-.24a1.15,1.15,0,0,0,.65-1,.27.27,0,0,0-.18-.27h0l.1-.24v-.07a.22.22,0,0,0,0-.08,2.769,2.769,0,0,0,.34.48.65.65,0,0,0,1-.13,3.871,3.871,0,0,0,.33-.64.46.46,0,0,0,.21-.14,2.19,2.19,0,0,0,.29-.39.79.79,0,0,0,.26.19.52.52,0,0,0,.75-.3,1,1,0,0,1,.32-.37l.06.13a.3.3,0,0,0,.45.28,1.32,1.32,0,0,0,.25-.16.63.63,0,0,0,.23-.53.84.84,0,0,0-.56-.76Z" transform="translate(-47.999 -46.316)"/>
    <path id="Path_9" data-name="Path 9" d="M230.58,147.26c-1.09-.33-2.21-.68-3.33-.9a3.92,3.92,0,0,0-2.6.06,1.17,1.17,0,0,0-.48.58.33.33,0,0,0-.27-.08,1.879,1.879,0,0,0-.3.12,1.46,1.46,0,0,1-.3.07,2.94,2.94,0,0,1-.49.08,1.92,1.92,0,0,0-.55-.1c.2,0-.21-.07,0,0a3.857,3.857,0,0,0-.48-.16l-.29-.08-.14-.05h0l-.26-.15-.13-.09h0a.82.82,0,0,0-1.15,0,2.43,2.43,0,0,0-.4.51,2.74,2.74,0,0,0-.85-.52h0a.51.51,0,0,0-.28-.5,8.679,8.679,0,0,0-.13-1.83c-.09-.54-.84-.55-1.1-.15a8.958,8.958,0,0,0-.46.82,12.53,12.53,0,0,1,1.54-5.17.34.34,0,0,0-.58-.34,13,13,0,0,0-2.1,9.79c.16.8,1.33.57,1.37-.18,0-.23.05-.45.07-.68a.67.67,0,0,0,.48.28,1.35,1.35,0,0,0,.41.16h.08v.07a2,2,0,1,0,3.86.93,2.45,2.45,0,0,0-.06-.75,11,11,0,0,0,3.46-.49.94.94,0,0,0,1.12-.66,14.48,14.48,0,0,0,1.47.08c1,0,1.94-.08,2.9-.16a.255.255,0,0,0-.03-.51ZM219.16,150a.67.67,0,0,1-.22-.4h1.2a.57.57,0,0,1-.98.4Z" transform="translate(-83.195 -46.033)"/>
    <path id="Path_10" data-name="Path 10" d="M214.17,144.94a24.881,24.881,0,0,0-.36-3.94c-.08-.42-.78-.32-.76.11.06,1.3.1,2.6.16,3.91a17.627,17.627,0,0,0,.09,1.92c.1.62,0,1.27.12,1.9,0,.2.33.17.38,0a17.4,17.4,0,0,0,.28-1.9A10.309,10.309,0,0,0,214.17,144.94Z" transform="translate(-83.195 -45.834)"/>
    <path id="Path_11" data-name="Path 11" d="M121.84,141.46l-1.32,2.81a6,6,0,0,0,.17-3.08.52.52,0,0,0-1-.13,23.638,23.638,0,0,0-1.35,2.26,15.75,15.75,0,0,0-.78-5.17c-.11-.34-.68-.5-.85-.11a15.369,15.369,0,0,0-1.19,3.8c-.23-.85-.46-1.7-.7-2.55a.383.383,0,0,0-.74.2c.49,1.85.92,3.72,1.35,5.58a24.3,24.3,0,0,0-6.79-5.18c-.45-.25-1.1.28-.76.75a33.611,33.611,0,0,0,4.4,5.33.37.37,0,0,0,.1.22l1,.9h0a18.542,18.542,0,0,0,1.34,1.46,4.17,4.17,0,0,0,1.77,1.2c.15.64.3,1.27.46,1.9-.51,1.13-1,2.26-1.42,3.41-.09.23.26.37.38.17.47-.81.9-1.65,1.32-2.49.17.67.33,1.33.52,2,0,.15.31.13.29,0-.09-1-.21-1.92-.35-2.87.52-1.08,1-2.18,1.54-3.27l3.16-6.75C122.69,141.41,122,141,121.84,141.46Zm-4.27,9.08a3.914,3.914,0,0,0-.14-.76h0a.35.35,0,0,0,.33-.44l-.09-.33h0a5.7,5.7,0,0,0,.58.06Z" transform="translate(-36.093 -46.466)"/>
    <path id="Path_12" data-name="Path 12" d="M100.31,22.86l-9.24-.68C88,22,85,21.61,81.89,21.48a28.581,28.581,0,0,0-4.24,0c-1.39.14-2.72.59-4.09.85a11.14,11.14,0,0,1-4.19,0,14.44,14.44,0,0,0-4-.4c-1.61.16-2.87,1.06-4.38,1.52a12,12,0,0,1-2.21.42,8.7,8.7,0,0,0-3.74.16c-.37.12-.54.71-.12.91a4.76,4.76,0,0,0,1.88.52c.77.06,1.53.11,2.29.18a42.351,42.351,0,0,1,4.62.62c1.43.28,2.83.71,4.27.94a14.69,14.69,0,0,0,4.24,0c3-.41,6.05-.74,9.11-.9s6.05.28,9.08.07a35.09,35.09,0,0,0,5.1-.78c1.69-.38,3.28-1,4.94-1.43a.654.654,0,1,0-.14-1.3Z" transform="translate(-20.989)" fill="#ffd6bb"/>
    <path id="Path_13" data-name="Path 13" d="M73.33,78.92l-10.77-.8c-3.56-.27-7.12-.66-10.69-.81a31.209,31.209,0,0,0-4.93,0,48.077,48.077,0,0,0-4.77,1,12.92,12.92,0,0,1-4.88,0,16.8,16.8,0,0,0-4.63-.47c-1.88.2-3.34,1.24-5.11,1.77a14.07,14.07,0,0,1-2.57.5,10.14,10.14,0,0,0-4.36.18c-.43.14-.62.83-.14,1.06a5.52,5.52,0,0,0,2.2.6l2.66.22a48.781,48.781,0,0,1,5.39.72c1.66.32,3.29.83,5,1.09a16.7,16.7,0,0,0,4.94,0c3.53-.47,7-.86,10.61-1s7,.33,10.57.08A40,40,0,0,0,67.77,82c2-.44,3.81-1.15,5.75-1.67a.72.72,0,0,0-.19-1.41Z" transform="translate(0 -25.027)" fill="#ffd6bb"/>
    <path id="Path_14" data-name="Path 14" d="M139.49,34.42c-1.63-.8-3.91-.53-5.69-.54h-6c-4.27-.08-8.55,0-12.82-.12-2.13-.06-4.15-.54-6.25-.72a38.251,38.251,0,0,0-6.24.07,6.74,6.74,0,0,0-2.57.86,8.93,8.93,0,0,1-2.67.48c-2.11.25-4.21.33-6.33.42a.44.44,0,0,0,0,.87c2.12,0,4.22.06,6.33.25a9.62,9.62,0,0,1,2.67.38,7.14,7.14,0,0,0,2.3.8,35.39,35.39,0,0,0,6.51,0c2.1-.22,4.12-.73,6.25-.81,4.17-.16,8.35-.12,12.52-.2h6.26c1.78,0,4.06.29,5.69-.5a.66.66,0,0,0,.04-1.24Z" transform="translate(-35.239)" fill="#ffd6bb" opacity="0.25"/>
    <path id="Path_15" data-name="Path 15" d="M145.8,69.19c-2.83-1.4-6.8-.94-9.9-.94-3.46,0-6.91,0-10.36-.06-7.42-.15-14.85,0-22.27-.22-3.7-.09-7.21-.93-10.87-1.24a66.51,66.51,0,0,0-10.84.12,11.65,11.65,0,0,0-4.47,1.49,15.16,15.16,0,0,1-4.64.84c-3.66.44-7.31.57-11,.74a.75.75,0,0,0,0,1.5c3.68.06,7.32.11,11,.43a16.89,16.89,0,0,1,4.64.66c1.46.58,2.31,1.26,4,1.4a61.151,61.151,0,0,0,11.32-.09c3.66-.39,7.16-1.26,10.87-1.41,7.24-.27,14.51-.2,21.75-.35,3.63-.07,7.25,0,10.88,0,3.1,0,7.06.51,9.9-.86a1.15,1.15,0,0,0-.01-2.01Z" transform="translate(-28.464 -21.625)" fill="#ffd6bb" opacity="0.25"/>
    <path id="Path_16" data-name="Path 16" d="M213.1,87.06c-5-.76-10-1.37-15-1.92q-3.8-.42-7.6-.74c-2.62-.22-5.27-.82-7.9-.84a26,26,0,0,0-7.09,1.29,45.47,45.47,0,0,1-7.59,1.31c-2.53.24-5,.58-7.55.66-1.79.05-3.58.06-5.37.08-.74-.14-1.49-.3-2.22-.47a.93.93,0,0,0-.5,1.79c2.55.75,5.09,1.61,7.7,2.11s5.17.82,7.75,1.07c5.18.51,10.31-.37,15.44-1,2.49-.32,4.93-.9,7.45-1a45.881,45.881,0,0,1,7.59.5c5,.61,9.87,1.22,14.87.27C214.58,89.84,214.64,87.3,213.1,87.06Z" transform="translate(-62.9 -27.188)" fill="#ffd6bb" opacity="0.5"/>
    <path id="Path_17" data-name="Path 17" d="M63.69,42.62c.14-.09.1-.36-.08-.37a5.84,5.84,0,0,0-3.83,1.49,8.43,8.43,0,0,0-1.57,1.47c-.26.34-.56.68-.83,1-.26-.08-.52-.21-.78-.3a17.141,17.141,0,0,0-1.89-.56,24,24,0,0,0-3.48-.68A8.06,8.06,0,0,0,45.63,46a.24.24,0,0,0,.28.39,7.54,7.54,0,0,1,5.63-.85,9.73,9.73,0,0,1,3.05,1.36l1.32.9a18.071,18.071,0,0,0,1.55,1.18,1.31,1.31,0,0,0,1.81-1,12.34,12.34,0,0,1,.44-1.69,6.43,6.43,0,0,1,1-1.51,16.1,16.1,0,0,1,2.98-2.16Z" transform="translate(-15.474)"/>
    <path id="Path_18" data-name="Path 18" d="M74.71,46.8a3.53,3.53,0,0,0-1.47.74,6,6,0,0,0-1.09,1.36,10.3,10.3,0,0,0-.73,1.54A9.71,9.71,0,0,0,71,51.63c-.25.11-.49.25-.75.35A5.48,5.48,0,0,0,69,52.6a4.09,4.09,0,0,0-1.71,2.25.37.37,0,0,0,.67.29,4.69,4.69,0,0,1,1.49-1.78,3.34,3.34,0,0,1,1-.5,1,1,0,0,1,.48,0c.2,0,.37.19.58.23a.86.86,0,0,0,1.06-.81,9,9,0,0,1,.13-1.37,5.16,5.16,0,0,1,.57-1.37,10.659,10.659,0,0,1,.82-1.17c.32-.39.54-.83.84-1.22A.23.23,0,0,0,74.71,46.8Z" transform="translate(-21.916)"/>
    <path id="Path_19" data-name="Path 19" d="M64.56,60a2.72,2.72,0,0,0-1.41-.74,3.59,3.59,0,0,0-1.92.1,4.38,4.38,0,0,0-2.44,1.87,4.61,4.61,0,0,0-2.47-.06c-.7.19-2.25.75-2.07,1.69a.17.17,0,0,0,.15.15c.41.05.66-.2,1-.42a3.49,3.49,0,0,1,1.14-.49,3.65,3.65,0,0,1,2.12.13c.18.48.82.86,1.26.42a13.271,13.271,0,0,0,.83-1.14,2.51,2.51,0,0,1,1-.71A4.43,4.43,0,0,1,63,60.49a3.36,3.36,0,0,1,.63-.06c.24,0,.47.1.71.09a.3.3,0,0,0,.22-.52Z" transform="translate(-17.86 -18.965)"/>
    <path id="Path_20" data-name="Path 20" d="M38.32,96.5a2,2,0,0,0-.54-1.06,2.37,2.37,0,0,0-1.7-1.21,4,4,0,0,0-1.42,0,.8.8,0,0,0,0-.15,2.47,2.47,0,0,0-.29-.71,2.75,2.75,0,0,0-1.06-1,2.37,2.37,0,0,0-2.67.36c-.24.23.07.67.36.48a1.94,1.94,0,0,1,1.92-.17,1.31,1.31,0,0,1,.62.71,1.29,1.29,0,0,1,.11.78,1.58,1.58,0,0,0-.24.31.8.8,0,0,0,.12.94.84.84,0,0,0,.94.13,2.42,2.42,0,0,1,1.38-.16,5.369,5.369,0,0,1,.8.15,3,3,0,0,0,.59.14c.28.18.51.42.78.61a.22.22,0,0,0,.3-.15Z" transform="translate(0 -29.597)"/>
  </g>
</svg>
